<svg width="618" height="260" viewBox="0 0 618 260" fill="none" xmlns="http://www.w3.org/2000/svg">
<g opacity="0.1">
<circle cx="612.629" cy="255.125" r="4.87503" transform="rotate(180 612.629 255.125)" fill="#392162"/>
<circle cx="576.879" cy="255.125" r="4.87503" transform="rotate(180 576.879 255.125)" fill="#392162"/>
<circle cx="541.128" cy="255.125" r="4.87503" transform="rotate(180 541.128 255.125)" fill="#392162"/>
<circle cx="505.378" cy="255.125" r="4.87503" transform="rotate(180 505.378 255.125)" fill="#392162"/>
<circle cx="469.628" cy="255.125" r="4.87503" transform="rotate(180 469.628 255.125)" fill="#392162"/>
<circle cx="433.878" cy="255.125" r="4.87503" transform="rotate(180 433.878 255.125)" fill="#392162"/>
<circle cx="398.128" cy="255.125" r="4.87503" transform="rotate(180 398.128 255.125)" fill="#392162"/>
<circle cx="183.626" cy="255.125" r="4.87503" transform="rotate(180 183.626 255.125)" fill="#392162"/>
<circle cx="362.377" cy="255.125" r="4.87503" transform="rotate(180 362.377 255.125)" fill="#392162"/>
<circle cx="147.876" cy="255.125" r="4.87503" transform="rotate(180 147.876 255.125)" fill="#392162"/>
<circle cx="326.626" cy="255.125" r="4.87503" transform="rotate(180 326.626 255.125)" fill="#392162"/>
<circle cx="112.125" cy="255.125" r="4.87503" transform="rotate(180 112.125 255.125)" fill="#392162"/>
<circle cx="290.876" cy="255.125" r="4.87503" transform="rotate(180 290.876 255.125)" fill="#392162"/>
<circle cx="76.375" cy="255.125" r="4.87503" transform="rotate(180 76.375 255.125)" fill="#392162"/>
<circle cx="255.127" cy="255.125" r="4.87503" transform="rotate(180 255.127 255.125)" fill="#392162"/>
<circle cx="40.6259" cy="255.125" r="4.87503" transform="rotate(180 40.6259 255.125)" fill="#392162"/>
<circle cx="219.377" cy="255.125" r="4.87503" transform="rotate(180 219.377 255.125)" fill="#392162"/>
<circle cx="4.87503" cy="255.125" r="4.87503" transform="rotate(180 4.87503 255.125)" fill="#392162"/>
<circle cx="612.629" cy="219.375" r="4.87503" transform="rotate(180 612.629 219.375)" fill="#392162"/>
<circle cx="576.878" cy="219.375" r="4.87503" transform="rotate(180 576.878 219.375)" fill="#392162"/>
<circle cx="541.128" cy="219.375" r="4.87503" transform="rotate(180 541.128 219.375)" fill="#392162"/>
<circle cx="505.378" cy="219.375" r="4.87503" transform="rotate(180 505.378 219.375)" fill="#392162"/>
<circle cx="469.628" cy="219.375" r="4.87503" transform="rotate(180 469.628 219.375)" fill="#392162"/>
<circle cx="433.878" cy="219.375" r="4.87503" transform="rotate(180 433.878 219.375)" fill="#392162"/>
<circle cx="398.128" cy="219.375" r="4.87503" transform="rotate(180 398.128 219.375)" fill="#392162"/>
<circle cx="183.626" cy="219.375" r="4.87503" transform="rotate(180 183.626 219.375)" fill="#392162"/>
<circle cx="362.377" cy="219.375" r="4.87503" transform="rotate(180 362.377 219.375)" fill="#392162"/>
<circle cx="147.876" cy="219.375" r="4.87503" transform="rotate(180 147.876 219.375)" fill="#392162"/>
<circle cx="326.626" cy="219.375" r="4.87503" transform="rotate(180 326.626 219.375)" fill="#392162"/>
<circle cx="112.125" cy="219.375" r="4.87503" transform="rotate(180 112.125 219.375)" fill="#392162"/>
<circle cx="290.876" cy="219.375" r="4.87503" transform="rotate(180 290.876 219.375)" fill="#392162"/>
<circle cx="76.3749" cy="219.375" r="4.87503" transform="rotate(180 76.3749 219.375)" fill="#392162"/>
<circle cx="255.127" cy="219.375" r="4.87503" transform="rotate(180 255.127 219.375)" fill="#392162"/>
<circle cx="40.6259" cy="219.375" r="4.87503" transform="rotate(180 40.6259 219.375)" fill="#392162"/>
<circle cx="219.377" cy="219.375" r="4.87503" transform="rotate(180 219.377 219.375)" fill="#392162"/>
<circle cx="4.87491" cy="219.375" r="4.87503" transform="rotate(180 4.87491 219.375)" fill="#392162"/>
<circle cx="612.629" cy="183.625" r="4.87503" transform="rotate(180 612.629 183.625)" fill="#392162"/>
<circle cx="576.878" cy="183.625" r="4.87503" transform="rotate(180 576.878 183.625)" fill="#392162"/>
<circle cx="541.128" cy="183.625" r="4.87503" transform="rotate(180 541.128 183.625)" fill="#392162"/>
<circle cx="505.378" cy="183.625" r="4.87503" transform="rotate(180 505.378 183.625)" fill="#392162"/>
<circle cx="469.628" cy="183.625" r="4.87503" transform="rotate(180 469.628 183.625)" fill="#392162"/>
<circle cx="433.878" cy="183.625" r="4.87503" transform="rotate(180 433.878 183.625)" fill="#392162"/>
<circle cx="398.128" cy="183.625" r="4.87503" transform="rotate(180 398.128 183.625)" fill="#392162"/>
<circle cx="183.626" cy="183.625" r="4.87503" transform="rotate(180 183.626 183.625)" fill="#392162"/>
<circle cx="362.377" cy="183.625" r="4.87503" transform="rotate(180 362.377 183.625)" fill="#392162"/>
<circle cx="147.876" cy="183.625" r="4.87503" transform="rotate(180 147.876 183.625)" fill="#392162"/>
<circle cx="326.626" cy="183.625" r="4.87503" transform="rotate(180 326.626 183.625)" fill="#392162"/>
<circle cx="112.125" cy="183.625" r="4.87503" transform="rotate(180 112.125 183.625)" fill="#392162"/>
<circle cx="290.876" cy="183.625" r="4.87503" transform="rotate(180 290.876 183.625)" fill="#392162"/>
<circle cx="76.3749" cy="183.625" r="4.87503" transform="rotate(180 76.3749 183.625)" fill="#392162"/>
<circle cx="255.127" cy="183.625" r="4.87503" transform="rotate(180 255.127 183.625)" fill="#392162"/>
<circle cx="40.6259" cy="183.625" r="4.87503" transform="rotate(180 40.6259 183.625)" fill="#392162"/>
<circle cx="219.377" cy="183.625" r="4.87503" transform="rotate(180 219.377 183.625)" fill="#392162"/>
<circle cx="4.87491" cy="183.625" r="4.87503" transform="rotate(180 4.87491 183.625)" fill="#392162"/>
<circle cx="612.629" cy="147.873" r="4.87503" transform="rotate(180 612.629 147.873)" fill="#392162"/>
<circle cx="576.878" cy="147.873" r="4.87503" transform="rotate(180 576.878 147.873)" fill="#392162"/>
<circle cx="541.128" cy="147.873" r="4.87503" transform="rotate(180 541.128 147.873)" fill="#392162"/>
<circle cx="505.378" cy="147.873" r="4.87503" transform="rotate(180 505.378 147.873)" fill="#392162"/>
<circle cx="469.628" cy="147.873" r="4.87503" transform="rotate(180 469.628 147.873)" fill="#392162"/>
<circle cx="433.878" cy="147.873" r="4.87503" transform="rotate(180 433.878 147.873)" fill="#392162"/>
<circle cx="398.128" cy="147.873" r="4.87503" transform="rotate(180 398.128 147.873)" fill="#392162"/>
<circle cx="183.626" cy="147.873" r="4.87503" transform="rotate(180 183.626 147.873)" fill="#392162"/>
<circle cx="362.377" cy="147.873" r="4.87503" transform="rotate(180 362.377 147.873)" fill="#392162"/>
<circle cx="147.876" cy="147.873" r="4.87503" transform="rotate(180 147.876 147.873)" fill="#392162"/>
<circle cx="326.626" cy="147.873" r="4.87503" transform="rotate(180 326.626 147.873)" fill="#392162"/>
<circle cx="112.125" cy="147.873" r="4.87503" transform="rotate(180 112.125 147.873)" fill="#392162"/>
<circle cx="290.876" cy="147.873" r="4.87503" transform="rotate(180 290.876 147.873)" fill="#392162"/>
<circle cx="76.3749" cy="147.873" r="4.87503" transform="rotate(180 76.3749 147.873)" fill="#392162"/>
<circle cx="255.127" cy="147.873" r="4.87503" transform="rotate(180 255.127 147.873)" fill="#392162"/>
<circle cx="40.6259" cy="147.873" r="4.87503" transform="rotate(180 40.6259 147.873)" fill="#392162"/>
<circle cx="219.377" cy="147.873" r="4.87503" transform="rotate(180 219.377 147.873)" fill="#392162"/>
<circle cx="4.87491" cy="147.873" r="4.87503" transform="rotate(180 4.87491 147.873)" fill="#392162"/>
<circle cx="612.629" cy="112.123" r="4.87503" transform="rotate(180 612.629 112.123)" fill="#392162"/>
<circle cx="576.878" cy="112.123" r="4.87503" transform="rotate(180 576.878 112.123)" fill="#392162"/>
<circle cx="541.128" cy="112.123" r="4.87503" transform="rotate(180 541.128 112.123)" fill="#392162"/>
<circle cx="505.378" cy="112.123" r="4.87503" transform="rotate(180 505.378 112.123)" fill="#392162"/>
<circle cx="469.628" cy="112.123" r="4.87503" transform="rotate(180 469.628 112.123)" fill="#392162"/>
<circle cx="433.878" cy="112.123" r="4.87503" transform="rotate(180 433.878 112.123)" fill="#392162"/>
<circle cx="398.128" cy="112.123" r="4.87503" transform="rotate(180 398.128 112.123)" fill="#392162"/>
<circle cx="183.626" cy="112.123" r="4.87503" transform="rotate(180 183.626 112.123)" fill="#392162"/>
<circle cx="362.377" cy="112.123" r="4.87503" transform="rotate(180 362.377 112.123)" fill="#392162"/>
<circle cx="147.876" cy="112.123" r="4.87503" transform="rotate(180 147.876 112.123)" fill="#392162"/>
<circle cx="326.626" cy="112.123" r="4.87503" transform="rotate(180 326.626 112.123)" fill="#392162"/>
<circle cx="112.125" cy="112.123" r="4.87503" transform="rotate(180 112.125 112.123)" fill="#392162"/>
<circle cx="290.876" cy="112.123" r="4.87503" transform="rotate(180 290.876 112.123)" fill="#392162"/>
<circle cx="76.3749" cy="112.123" r="4.87503" transform="rotate(180 76.3749 112.123)" fill="#392162"/>
<circle cx="255.127" cy="112.123" r="4.87503" transform="rotate(180 255.127 112.123)" fill="#392162"/>
<circle cx="40.6259" cy="112.123" r="4.87503" transform="rotate(180 40.6259 112.123)" fill="#392162"/>
<circle cx="219.377" cy="112.123" r="4.87503" transform="rotate(180 219.377 112.123)" fill="#392162"/>
<circle cx="4.87491" cy="112.123" r="4.87503" transform="rotate(180 4.87491 112.123)" fill="#392162"/>
<circle cx="612.629" cy="76.375" r="4.87503" transform="rotate(180 612.629 76.375)" fill="#392162"/>
<circle cx="576.879" cy="76.375" r="4.87503" transform="rotate(180 576.879 76.375)" fill="#392162"/>
<circle cx="541.128" cy="76.375" r="4.87503" transform="rotate(180 541.128 76.375)" fill="#392162"/>
<circle cx="505.378" cy="76.375" r="4.87503" transform="rotate(180 505.378 76.375)" fill="#392162"/>
<circle cx="469.628" cy="76.375" r="4.87503" transform="rotate(180 469.628 76.375)" fill="#392162"/>
<circle cx="433.878" cy="76.375" r="4.87503" transform="rotate(180 433.878 76.375)" fill="#392162"/>
<circle cx="398.128" cy="76.375" r="4.87503" transform="rotate(180 398.128 76.375)" fill="#392162"/>
<circle cx="183.626" cy="76.3751" r="4.87503" transform="rotate(180 183.626 76.3751)" fill="#392162"/>
<circle cx="362.377" cy="76.375" r="4.87503" transform="rotate(180 362.377 76.375)" fill="#392162"/>
<circle cx="147.876" cy="76.3751" r="4.87503" transform="rotate(180 147.876 76.3751)" fill="#392162"/>
<circle cx="326.626" cy="76.375" r="4.87503" transform="rotate(180 326.626 76.375)" fill="#392162"/>
<circle cx="112.125" cy="76.3751" r="4.87503" transform="rotate(180 112.125 76.3751)" fill="#392162"/>
<circle cx="290.876" cy="76.375" r="4.87503" transform="rotate(180 290.876 76.375)" fill="#392162"/>
<circle cx="76.3749" cy="76.3751" r="4.87503" transform="rotate(180 76.3749 76.3751)" fill="#392162"/>
<circle cx="255.127" cy="76.3751" r="4.87503" transform="rotate(180 255.127 76.3751)" fill="#392162"/>
<circle cx="40.6259" cy="76.3751" r="4.87503" transform="rotate(180 40.6259 76.3751)" fill="#392162"/>
<circle cx="219.377" cy="76.3751" r="4.87503" transform="rotate(180 219.377 76.3751)" fill="#392162"/>
<circle cx="4.87491" cy="76.3751" r="4.87503" transform="rotate(180 4.87491 76.3751)" fill="#392162"/>
<circle cx="612.629" cy="40.625" r="4.87503" transform="rotate(180 612.629 40.625)" fill="#392162"/>
<circle cx="576.878" cy="40.625" r="4.87503" transform="rotate(180 576.878 40.625)" fill="#392162"/>
<circle cx="541.128" cy="40.625" r="4.87503" transform="rotate(180 541.128 40.625)" fill="#392162"/>
<circle cx="505.378" cy="40.625" r="4.87503" transform="rotate(180 505.378 40.625)" fill="#392162"/>
<circle cx="469.628" cy="40.625" r="4.87503" transform="rotate(180 469.628 40.625)" fill="#392162"/>
<circle cx="433.878" cy="40.625" r="4.87503" transform="rotate(180 433.878 40.625)" fill="#392162"/>
<circle cx="398.128" cy="40.625" r="4.87503" transform="rotate(180 398.128 40.625)" fill="#392162"/>
<circle cx="183.626" cy="40.6251" r="4.87503" transform="rotate(180 183.626 40.6251)" fill="#392162"/>
<circle cx="362.377" cy="40.625" r="4.87503" transform="rotate(180 362.377 40.625)" fill="#392162"/>
<circle cx="147.876" cy="40.6251" r="4.87503" transform="rotate(180 147.876 40.6251)" fill="#392162"/>
<circle cx="326.626" cy="40.625" r="4.87503" transform="rotate(180 326.626 40.625)" fill="#392162"/>
<circle cx="112.125" cy="40.6251" r="4.87503" transform="rotate(180 112.125 40.6251)" fill="#392162"/>
<circle cx="290.876" cy="40.625" r="4.87503" transform="rotate(180 290.876 40.625)" fill="#392162"/>
<circle cx="76.3749" cy="40.6251" r="4.87503" transform="rotate(180 76.3749 40.6251)" fill="#392162"/>
<circle cx="255.127" cy="40.6251" r="4.87503" transform="rotate(180 255.127 40.6251)" fill="#392162"/>
<circle cx="40.6259" cy="40.6251" r="4.87503" transform="rotate(180 40.6259 40.6251)" fill="#392162"/>
<circle cx="219.377" cy="40.6251" r="4.87503" transform="rotate(180 219.377 40.6251)" fill="#392162"/>
<circle cx="4.87491" cy="40.6251" r="4.87503" transform="rotate(180 4.87491 40.6251)" fill="#392162"/>
<circle cx="612.629" cy="4.87497" r="4.87503" transform="rotate(180 612.629 4.87497)" fill="#392162"/>
<circle cx="576.878" cy="4.87497" r="4.87503" transform="rotate(180 576.878 4.87497)" fill="#392162"/>
<circle cx="541.128" cy="4.87497" r="4.87503" transform="rotate(180 541.128 4.87497)" fill="#392162"/>
<circle cx="505.378" cy="4.87497" r="4.87503" transform="rotate(180 505.378 4.87497)" fill="#392162"/>
<circle cx="469.628" cy="4.87497" r="4.87503" transform="rotate(180 469.628 4.87497)" fill="#392162"/>
<circle cx="433.878" cy="4.87503" r="4.87503" transform="rotate(180 433.878 4.87503)" fill="#392162"/>
<circle cx="398.127" cy="4.87503" r="4.87503" transform="rotate(180 398.127 4.87503)" fill="#392162"/>
<circle cx="183.626" cy="4.87503" r="4.87503" transform="rotate(180 183.626 4.87503)" fill="#392162"/>
<circle cx="362.377" cy="4.87503" r="4.87503" transform="rotate(180 362.377 4.87503)" fill="#392162"/>
<circle cx="147.876" cy="4.87503" r="4.87503" transform="rotate(180 147.876 4.87503)" fill="#392162"/>
<circle cx="326.626" cy="4.87503" r="4.87503" transform="rotate(180 326.626 4.87503)" fill="#392162"/>
<circle cx="112.125" cy="4.87503" r="4.87503" transform="rotate(180 112.125 4.87503)" fill="#392162"/>
<circle cx="290.876" cy="4.87503" r="4.87503" transform="rotate(180 290.876 4.87503)" fill="#392162"/>
<circle cx="76.375" cy="4.87503" r="4.87503" transform="rotate(180 76.375 4.87503)" fill="#392162"/>
<circle cx="255.127" cy="4.87503" r="4.87503" transform="rotate(180 255.127 4.87503)" fill="#392162"/>
<circle cx="40.6259" cy="4.87503" r="4.87503" transform="rotate(180 40.6259 4.87503)" fill="#392162"/>
<circle cx="219.377" cy="4.87503" r="4.87503" transform="rotate(180 219.377 4.87503)" fill="#392162"/>
<circle cx="4.87503" cy="4.87503" r="4.87503" transform="rotate(180 4.87503 4.87503)" fill="#392162"/>
</g>
</svg>
