<svg width="260" height="368" viewBox="0 0 260 368" fill="none" xmlns="http://www.w3.org/2000/svg">
<g opacity="0.1">
<circle cx="4.87503" cy="183.626" r="4.87503" transform="rotate(-90 4.87503 183.626)" fill="#392162"/>
<circle cx="4.87503" cy="362.377" r="4.87503" transform="rotate(-90 4.87503 362.377)" fill="#392162"/>
<circle cx="4.87503" cy="147.876" r="4.87503" transform="rotate(-90 4.87503 147.876)" fill="#392162"/>
<circle cx="4.87503" cy="326.626" r="4.87503" transform="rotate(-90 4.87503 326.626)" fill="#392162"/>
<circle cx="4.87503" cy="112.125" r="4.87503" transform="rotate(-90 4.87503 112.125)" fill="#392162"/>
<circle cx="4.87503" cy="290.876" r="4.87503" transform="rotate(-90 4.87503 290.876)" fill="#392162"/>
<circle cx="4.87503" cy="76.375" r="4.87503" transform="rotate(-90 4.87503 76.375)" fill="#392162"/>
<circle cx="4.87503" cy="255.127" r="4.87503" transform="rotate(-90 4.87503 255.127)" fill="#392162"/>
<circle cx="4.87503" cy="40.6259" r="4.87503" transform="rotate(-90 4.87503 40.6259)" fill="#392162"/>
<circle cx="4.87503" cy="219.377" r="4.87503" transform="rotate(-90 4.87503 219.377)" fill="#392162"/>
<circle cx="4.87503" cy="4.87497" r="4.87503" transform="rotate(-90 4.87503 4.87497)" fill="#392162"/>
<circle cx="40.625" cy="183.626" r="4.87503" transform="rotate(-90 40.625 183.626)" fill="#392162"/>
<circle cx="40.625" cy="362.377" r="4.87503" transform="rotate(-90 40.625 362.377)" fill="#392162"/>
<circle cx="40.625" cy="147.876" r="4.87503" transform="rotate(-90 40.625 147.876)" fill="#392162"/>
<circle cx="40.625" cy="326.626" r="4.87503" transform="rotate(-90 40.625 326.626)" fill="#392162"/>
<circle cx="40.625" cy="112.125" r="4.87503" transform="rotate(-90 40.625 112.125)" fill="#392162"/>
<circle cx="40.625" cy="290.876" r="4.87503" transform="rotate(-90 40.625 290.876)" fill="#392162"/>
<circle cx="40.625" cy="76.375" r="4.87503" transform="rotate(-90 40.625 76.375)" fill="#392162"/>
<circle cx="40.625" cy="255.127" r="4.87503" transform="rotate(-90 40.625 255.127)" fill="#392162"/>
<circle cx="40.625" cy="40.6259" r="4.87503" transform="rotate(-90 40.625 40.6259)" fill="#392162"/>
<circle cx="40.625" cy="219.377" r="4.87503" transform="rotate(-90 40.625 219.377)" fill="#392162"/>
<circle cx="40.625" cy="4.87497" r="4.87503" transform="rotate(-90 40.625 4.87497)" fill="#392162"/>
<circle cx="76.375" cy="183.626" r="4.87503" transform="rotate(-90 76.375 183.626)" fill="#392162"/>
<circle cx="76.375" cy="362.377" r="4.87503" transform="rotate(-90 76.375 362.377)" fill="#392162"/>
<circle cx="76.375" cy="147.876" r="4.87503" transform="rotate(-90 76.375 147.876)" fill="#392162"/>
<circle cx="76.375" cy="326.626" r="4.87503" transform="rotate(-90 76.375 326.626)" fill="#392162"/>
<circle cx="76.375" cy="112.125" r="4.87503" transform="rotate(-90 76.375 112.125)" fill="#392162"/>
<circle cx="76.375" cy="290.876" r="4.87503" transform="rotate(-90 76.375 290.876)" fill="#392162"/>
<circle cx="76.375" cy="76.375" r="4.87503" transform="rotate(-90 76.375 76.375)" fill="#392162"/>
<circle cx="76.375" cy="255.127" r="4.87503" transform="rotate(-90 76.375 255.127)" fill="#392162"/>
<circle cx="76.375" cy="40.6259" r="4.87503" transform="rotate(-90 76.375 40.6259)" fill="#392162"/>
<circle cx="76.375" cy="219.377" r="4.87503" transform="rotate(-90 76.375 219.377)" fill="#392162"/>
<circle cx="76.375" cy="4.87497" r="4.87503" transform="rotate(-90 76.375 4.87497)" fill="#392162"/>
<circle cx="112.127" cy="183.626" r="4.87503" transform="rotate(-90 112.127 183.626)" fill="#392162"/>
<circle cx="112.127" cy="362.377" r="4.87503" transform="rotate(-90 112.127 362.377)" fill="#392162"/>
<circle cx="112.127" cy="147.876" r="4.87503" transform="rotate(-90 112.127 147.876)" fill="#392162"/>
<circle cx="112.127" cy="326.626" r="4.87503" transform="rotate(-90 112.127 326.626)" fill="#392162"/>
<circle cx="112.127" cy="112.125" r="4.87503" transform="rotate(-90 112.127 112.125)" fill="#392162"/>
<circle cx="112.127" cy="290.876" r="4.87503" transform="rotate(-90 112.127 290.876)" fill="#392162"/>
<circle cx="112.127" cy="76.375" r="4.87503" transform="rotate(-90 112.127 76.375)" fill="#392162"/>
<circle cx="112.127" cy="255.127" r="4.87503" transform="rotate(-90 112.127 255.127)" fill="#392162"/>
<circle cx="112.127" cy="40.6259" r="4.87503" transform="rotate(-90 112.127 40.6259)" fill="#392162"/>
<circle cx="112.127" cy="219.377" r="4.87503" transform="rotate(-90 112.127 219.377)" fill="#392162"/>
<circle cx="112.127" cy="4.87497" r="4.87503" transform="rotate(-90 112.127 4.87497)" fill="#392162"/>
<circle cx="147.877" cy="183.626" r="4.87503" transform="rotate(-90 147.877 183.626)" fill="#392162"/>
<circle cx="147.877" cy="362.377" r="4.87503" transform="rotate(-90 147.877 362.377)" fill="#392162"/>
<circle cx="147.877" cy="147.876" r="4.87503" transform="rotate(-90 147.877 147.876)" fill="#392162"/>
<circle cx="147.877" cy="326.626" r="4.87503" transform="rotate(-90 147.877 326.626)" fill="#392162"/>
<circle cx="147.877" cy="112.125" r="4.87503" transform="rotate(-90 147.877 112.125)" fill="#392162"/>
<circle cx="147.877" cy="290.876" r="4.87503" transform="rotate(-90 147.877 290.876)" fill="#392162"/>
<circle cx="147.877" cy="76.375" r="4.87503" transform="rotate(-90 147.877 76.375)" fill="#392162"/>
<circle cx="147.877" cy="255.127" r="4.87503" transform="rotate(-90 147.877 255.127)" fill="#392162"/>
<circle cx="147.877" cy="40.6259" r="4.87503" transform="rotate(-90 147.877 40.6259)" fill="#392162"/>
<circle cx="147.877" cy="219.377" r="4.87503" transform="rotate(-90 147.877 219.377)" fill="#392162"/>
<circle cx="147.877" cy="4.87497" r="4.87503" transform="rotate(-90 147.877 4.87497)" fill="#392162"/>
<circle cx="183.625" cy="183.626" r="4.87503" transform="rotate(-90 183.625 183.626)" fill="#392162"/>
<circle cx="183.625" cy="362.377" r="4.87503" transform="rotate(-90 183.625 362.377)" fill="#392162"/>
<circle cx="183.625" cy="147.876" r="4.87503" transform="rotate(-90 183.625 147.876)" fill="#392162"/>
<circle cx="183.625" cy="326.626" r="4.87503" transform="rotate(-90 183.625 326.626)" fill="#392162"/>
<circle cx="183.625" cy="112.125" r="4.87503" transform="rotate(-90 183.625 112.125)" fill="#392162"/>
<circle cx="183.625" cy="290.876" r="4.87503" transform="rotate(-90 183.625 290.876)" fill="#392162"/>
<circle cx="183.625" cy="76.375" r="4.87503" transform="rotate(-90 183.625 76.375)" fill="#392162"/>
<circle cx="183.625" cy="255.127" r="4.87503" transform="rotate(-90 183.625 255.127)" fill="#392162"/>
<circle cx="183.625" cy="40.6259" r="4.87503" transform="rotate(-90 183.625 40.6259)" fill="#392162"/>
<circle cx="183.625" cy="219.377" r="4.87503" transform="rotate(-90 183.625 219.377)" fill="#392162"/>
<circle cx="183.625" cy="4.87497" r="4.87503" transform="rotate(-90 183.625 4.87497)" fill="#392162"/>
<circle cx="219.375" cy="183.626" r="4.87503" transform="rotate(-90 219.375 183.626)" fill="#392162"/>
<circle cx="219.375" cy="362.377" r="4.87503" transform="rotate(-90 219.375 362.377)" fill="#392162"/>
<circle cx="219.375" cy="147.876" r="4.87503" transform="rotate(-90 219.375 147.876)" fill="#392162"/>
<circle cx="219.375" cy="326.626" r="4.87503" transform="rotate(-90 219.375 326.626)" fill="#392162"/>
<circle cx="219.375" cy="112.125" r="4.87503" transform="rotate(-90 219.375 112.125)" fill="#392162"/>
<circle cx="219.375" cy="290.876" r="4.87503" transform="rotate(-90 219.375 290.876)" fill="#392162"/>
<circle cx="219.375" cy="76.375" r="4.87503" transform="rotate(-90 219.375 76.375)" fill="#392162"/>
<circle cx="219.375" cy="255.127" r="4.87503" transform="rotate(-90 219.375 255.127)" fill="#392162"/>
<circle cx="219.375" cy="40.6259" r="4.87503" transform="rotate(-90 219.375 40.6259)" fill="#392162"/>
<circle cx="219.375" cy="219.377" r="4.87503" transform="rotate(-90 219.375 219.377)" fill="#392162"/>
<circle cx="219.375" cy="4.87497" r="4.87503" transform="rotate(-90 219.375 4.87497)" fill="#392162"/>
<circle cx="255.125" cy="183.626" r="4.87503" transform="rotate(-90 255.125 183.626)" fill="#392162"/>
<circle cx="255.125" cy="362.377" r="4.87503" transform="rotate(-90 255.125 362.377)" fill="#392162"/>
<circle cx="255.125" cy="147.876" r="4.87503" transform="rotate(-90 255.125 147.876)" fill="#392162"/>
<circle cx="255.125" cy="326.626" r="4.87503" transform="rotate(-90 255.125 326.626)" fill="#392162"/>
<circle cx="255.125" cy="112.125" r="4.87503" transform="rotate(-90 255.125 112.125)" fill="#392162"/>
<circle cx="255.125" cy="290.876" r="4.87503" transform="rotate(-90 255.125 290.876)" fill="#392162"/>
<circle cx="255.125" cy="76.375" r="4.87503" transform="rotate(-90 255.125 76.375)" fill="#392162"/>
<circle cx="255.125" cy="255.127" r="4.87503" transform="rotate(-90 255.125 255.127)" fill="#392162"/>
<circle cx="255.125" cy="40.6259" r="4.87503" transform="rotate(-90 255.125 40.6259)" fill="#392162"/>
<circle cx="255.125" cy="219.377" r="4.87503" transform="rotate(-90 255.125 219.377)" fill="#392162"/>
<circle cx="255.125" cy="4.87521" r="4.87503" transform="rotate(-90 255.125 4.87521)" fill="#392162"/>
</g>
</svg>
